<mxfile host="app.diagrams.net" modified="2024-04-25T09:42:01.162Z" agent="Mozilla/5.0 (X11; Linux x86_64) AppleWebKit/537.36 (KHTML, like Gecko) Chrome/121.0.0.0 Safari/537.36" etag="07Q4NAefdE42To0oisiJ" version="23.1.7" type="device">
  <diagram name="Page-1" id="TwW2xO5Sqrsb3Oe0w1g0">
    <mxGraphModel dx="1434" dy="776" grid="1" gridSize="10" guides="1" tooltips="1" connect="1" arrows="1" fold="1" page="1" pageScale="1" pageWidth="827" pageHeight="1169" math="0" shadow="0">
      <root>
        <mxCell id="0" />
        <mxCell id="1" parent="0" />
        <mxCell id="gIOAA_0Qwzj5sN9iRquE-3" value="" style="edgeStyle=orthogonalEdgeStyle;rounded=0;html=1;jettySize=auto;orthogonalLoop=1;plain-blue;endArrow=none;endFill=0;strokeWidth=4;strokeColor=#000000;" edge="1" parent="1" source="gIOAA_0Qwzj5sN9iRquE-5" target="gIOAA_0Qwzj5sN9iRquE-7">
          <mxGeometry x="294.5" y="700" as="geometry" />
        </mxCell>
        <mxCell id="gIOAA_0Qwzj5sN9iRquE-4" style="edgeStyle=orthogonalEdgeStyle;curved=1;rounded=0;html=1;exitX=1;exitY=0.5;exitPerimeter=0;entryX=0;entryY=0.5;entryPerimeter=0;endArrow=none;endFill=0;jettySize=auto;orthogonalLoop=1;strokeWidth=4;fontSize=15;" edge="1" parent="1" source="gIOAA_0Qwzj5sN9iRquE-5" target="gIOAA_0Qwzj5sN9iRquE-17">
          <mxGeometry relative="1" as="geometry" />
        </mxCell>
        <mxCell id="gIOAA_0Qwzj5sN9iRquE-5" value="" style="verticalLabelPosition=bottom;verticalAlign=top;html=1;strokeWidth=4;shape=mxgraph.flowchart.on-page_reference;plain-blue;gradientColor=none;fillColor=#B5E3Fe;strokeColor=#000000;" vertex="1" parent="1">
          <mxGeometry x="274.5" y="207" width="30" height="30" as="geometry" />
        </mxCell>
        <mxCell id="gIOAA_0Qwzj5sN9iRquE-6" value="" style="edgeStyle=orthogonalEdgeStyle;curved=1;rounded=0;orthogonalLoop=1;jettySize=auto;html=1;endArrow=none;endFill=0;strokeWidth=4;fontFamily=Courier New;fontSize=16;" edge="1" parent="1" source="gIOAA_0Qwzj5sN9iRquE-7">
          <mxGeometry relative="1" as="geometry">
            <mxPoint x="680" y="222" as="targetPoint" />
          </mxGeometry>
        </mxCell>
        <mxCell id="gIOAA_0Qwzj5sN9iRquE-7" value="" style="verticalLabelPosition=bottom;verticalAlign=top;html=1;strokeWidth=4;shape=mxgraph.flowchart.on-page_reference;plain-blue;gradientColor=none;strokeColor=#000000;fillColor=#B5E3FE;" vertex="1" parent="1">
          <mxGeometry x="414" y="207" width="30" height="30" as="geometry" />
        </mxCell>
        <mxCell id="gIOAA_0Qwzj5sN9iRquE-14" value="" style="edgeStyle=orthogonalEdgeStyle;rounded=0;html=1;jettySize=auto;orthogonalLoop=1;strokeWidth=4;endArrow=none;endFill=0;" edge="1" parent="1" target="gIOAA_0Qwzj5sN9iRquE-5">
          <mxGeometry x="194.5" y="700" as="geometry">
            <mxPoint x="160" y="222" as="sourcePoint" />
          </mxGeometry>
        </mxCell>
        <mxCell id="gIOAA_0Qwzj5sN9iRquE-15" value="main" style="text;html=1;strokeColor=none;fillColor=none;align=center;verticalAlign=middle;whiteSpace=wrap;overflow=hidden;fontSize=14;fontStyle=1;fontFamily=Courier New;" vertex="1" parent="1">
          <mxGeometry x="90" y="212" width="50" height="20" as="geometry" />
        </mxCell>
        <mxCell id="gIOAA_0Qwzj5sN9iRquE-16" style="edgeStyle=orthogonalEdgeStyle;curved=1;rounded=0;html=1;exitX=1;exitY=0.5;exitPerimeter=0;endArrow=none;endFill=0;jettySize=auto;orthogonalLoop=1;strokeWidth=4;fontSize=15;" edge="1" parent="1" source="gIOAA_0Qwzj5sN9iRquE-17" target="gIOAA_0Qwzj5sN9iRquE-21">
          <mxGeometry relative="1" as="geometry">
            <mxPoint x="419.5" y="302" as="targetPoint" />
          </mxGeometry>
        </mxCell>
        <mxCell id="gIOAA_0Qwzj5sN9iRquE-17" value="" style="verticalLabelPosition=bottom;verticalAlign=top;html=1;strokeWidth=4;shape=mxgraph.flowchart.on-page_reference;plain-purple;gradientColor=none;strokeColor=#000000;" vertex="1" parent="1">
          <mxGeometry x="347.5" y="287" width="30" height="30" as="geometry" />
        </mxCell>
        <mxCell id="gIOAA_0Qwzj5sN9iRquE-18" style="edgeStyle=orthogonalEdgeStyle;curved=1;rounded=0;html=1;exitX=1;exitY=0.5;exitPerimeter=0;entryX=0;entryY=0.5;entryPerimeter=0;endArrow=none;endFill=0;jettySize=auto;orthogonalLoop=1;strokeWidth=4;fontSize=15;" edge="1" parent="1" target="gIOAA_0Qwzj5sN9iRquE-21">
          <mxGeometry relative="1" as="geometry">
            <mxPoint x="449.5" y="302" as="sourcePoint" />
          </mxGeometry>
        </mxCell>
        <mxCell id="gIOAA_0Qwzj5sN9iRquE-21" value="" style="verticalLabelPosition=bottom;verticalAlign=top;html=1;strokeWidth=4;shape=mxgraph.flowchart.on-page_reference;plain-purple;gradientColor=none;strokeColor=#000000;" vertex="1" parent="1">
          <mxGeometry x="560" y="287" width="30" height="30" as="geometry" />
        </mxCell>
        <mxCell id="gIOAA_0Qwzj5sN9iRquE-22" value="avenir" style="text;html=1;strokeColor=none;fillColor=none;align=left;verticalAlign=middle;whiteSpace=wrap;overflow=hidden;fontSize=14;fontStyle=1;fontFamily=Courier New;" vertex="1" parent="1">
          <mxGeometry x="97.5" y="292" width="240" height="20" as="geometry" />
        </mxCell>
        <mxCell id="gIOAA_0Qwzj5sN9iRquE-30" style="edgeStyle=orthogonalEdgeStyle;curved=1;rounded=0;html=1;exitX=1;exitY=0.5;exitPerimeter=0;endArrow=none;endFill=0;jettySize=auto;orthogonalLoop=1;strokeWidth=4;fontSize=15;" edge="1" parent="1" source="gIOAA_0Qwzj5sN9iRquE-31">
          <mxGeometry relative="1" as="geometry">
            <mxPoint x="490" y="142" as="targetPoint" />
          </mxGeometry>
        </mxCell>
        <mxCell id="gIOAA_0Qwzj5sN9iRquE-31" value="" style="verticalLabelPosition=bottom;verticalAlign=top;html=1;strokeWidth=4;shape=mxgraph.flowchart.on-page_reference;plain-purple;gradientColor=none;strokeColor=#000000;" vertex="1" parent="1">
          <mxGeometry x="347.5" y="127" width="30" height="30" as="geometry" />
        </mxCell>
        <mxCell id="gIOAA_0Qwzj5sN9iRquE-32" style="edgeStyle=orthogonalEdgeStyle;curved=1;rounded=0;html=1;exitX=1;exitY=0.5;exitPerimeter=0;entryX=0;entryY=0.5;entryPerimeter=0;endArrow=none;endFill=0;jettySize=auto;orthogonalLoop=1;strokeWidth=4;fontSize=15;" edge="1" parent="1" target="gIOAA_0Qwzj5sN9iRquE-34">
          <mxGeometry relative="1" as="geometry">
            <mxPoint x="449.5" y="142" as="sourcePoint" />
          </mxGeometry>
        </mxCell>
        <mxCell id="gIOAA_0Qwzj5sN9iRquE-34" value="" style="verticalLabelPosition=bottom;verticalAlign=top;html=1;strokeWidth=4;shape=mxgraph.flowchart.on-page_reference;plain-purple;gradientColor=none;strokeColor=#000000;" vertex="1" parent="1">
          <mxGeometry x="510" y="127" width="30" height="30" as="geometry" />
        </mxCell>
        <mxCell id="gIOAA_0Qwzj5sN9iRquE-37" style="edgeStyle=orthogonalEdgeStyle;curved=1;rounded=0;html=1;exitX=1;exitY=0.5;exitPerimeter=0;entryX=0;entryY=0.5;entryPerimeter=0;endArrow=none;endFill=0;jettySize=auto;orthogonalLoop=1;strokeWidth=4;fontSize=15;entryDx=0;entryDy=0;" edge="1" parent="1" target="gIOAA_0Qwzj5sN9iRquE-31">
          <mxGeometry relative="1" as="geometry">
            <mxPoint x="304.5" y="222" as="sourcePoint" />
            <mxPoint x="347.5" y="302" as="targetPoint" />
          </mxGeometry>
        </mxCell>
        <mxCell id="gIOAA_0Qwzj5sN9iRquE-38" value="imperial" style="text;html=1;strokeColor=none;fillColor=none;align=left;verticalAlign=middle;whiteSpace=wrap;overflow=hidden;fontSize=14;fontStyle=1;fontFamily=Courier New;" vertex="1" parent="1">
          <mxGeometry x="95.25" y="132" width="240" height="20" as="geometry" />
        </mxCell>
        <mxCell id="gIOAA_0Qwzj5sN9iRquE-39" style="edgeStyle=orthogonalEdgeStyle;curved=1;rounded=0;orthogonalLoop=1;jettySize=auto;html=1;exitX=1;exitY=0.5;exitDx=0;exitDy=0;exitPerimeter=0;entryX=0;entryY=0.5;entryDx=0;entryDy=0;entryPerimeter=0;endArrow=none;endFill=0;strokeWidth=4;fontFamily=Courier New;fontColor=#009900;" edge="1" parent="1" target="gIOAA_0Qwzj5sN9iRquE-41" source="gIOAA_0Qwzj5sN9iRquE-17">
          <mxGeometry relative="1" as="geometry">
            <mxPoint x="314" y="376" as="sourcePoint" />
          </mxGeometry>
        </mxCell>
        <mxCell id="gIOAA_0Qwzj5sN9iRquE-40" value="" style="edgeStyle=orthogonalEdgeStyle;rounded=0;orthogonalLoop=1;jettySize=auto;html=1;endArrow=none;endFill=0;strokeWidth=4;" edge="1" parent="1" source="gIOAA_0Qwzj5sN9iRquE-41" target="gIOAA_0Qwzj5sN9iRquE-43">
          <mxGeometry relative="1" as="geometry" />
        </mxCell>
        <mxCell id="gIOAA_0Qwzj5sN9iRquE-41" value="" style="verticalLabelPosition=bottom;verticalAlign=top;html=1;strokeWidth=4;shape=mxgraph.flowchart.on-page_reference;plain-purple;gradientColor=none;strokeColor=#000000;fillColor=#D5E8D4;" vertex="1" parent="1">
          <mxGeometry x="430" y="360" width="30" height="30" as="geometry" />
        </mxCell>
        <mxCell id="gIOAA_0Qwzj5sN9iRquE-42" style="edgeStyle=orthogonalEdgeStyle;curved=1;rounded=0;orthogonalLoop=1;jettySize=auto;html=1;exitX=1;exitY=0.5;exitDx=0;exitDy=0;exitPerimeter=0;entryX=0;entryY=0.5;entryDx=0;entryDy=0;entryPerimeter=0;endArrow=none;endFill=0;strokeWidth=4;fontFamily=Courier New;fontColor=#009900;" edge="1" parent="1" source="gIOAA_0Qwzj5sN9iRquE-43" target="gIOAA_0Qwzj5sN9iRquE-21">
          <mxGeometry relative="1" as="geometry">
            <mxPoint x="564" y="376" as="targetPoint" />
          </mxGeometry>
        </mxCell>
        <mxCell id="gIOAA_0Qwzj5sN9iRquE-43" value="" style="verticalLabelPosition=bottom;verticalAlign=top;html=1;strokeWidth=4;shape=mxgraph.flowchart.on-page_reference;plain-purple;gradientColor=none;strokeColor=#000000;fillColor=#D5E8D4;" vertex="1" parent="1">
          <mxGeometry x="480" y="360" width="30" height="30" as="geometry" />
        </mxCell>
        <mxCell id="gIOAA_0Qwzj5sN9iRquE-44" value="avenir-feature" style="text;html=1;strokeColor=none;fillColor=none;align=left;verticalAlign=middle;whiteSpace=wrap;overflow=hidden;fontSize=14;fontStyle=1;fontFamily=Courier New;" vertex="1" parent="1">
          <mxGeometry x="95.25" y="370" width="240" height="20" as="geometry" />
        </mxCell>
        <mxCell id="gIOAA_0Qwzj5sN9iRquE-47" value="" style="verticalLabelPosition=bottom;verticalAlign=top;html=1;strokeWidth=4;shape=mxgraph.flowchart.on-page_reference;plain-purple;gradientColor=none;strokeColor=#000000;fillColor=#D5E8D4;" vertex="1" parent="1">
          <mxGeometry x="430" y="45" width="30" height="30" as="geometry" />
        </mxCell>
        <mxCell id="gIOAA_0Qwzj5sN9iRquE-49" value="imperial-feature" style="text;html=1;strokeColor=none;fillColor=none;align=left;verticalAlign=middle;whiteSpace=wrap;overflow=hidden;fontSize=14;fontStyle=1;fontFamily=Courier New;" vertex="1" parent="1">
          <mxGeometry x="97.5" y="50" width="240" height="20" as="geometry" />
        </mxCell>
        <mxCell id="gIOAA_0Qwzj5sN9iRquE-50" style="edgeStyle=orthogonalEdgeStyle;curved=1;rounded=0;orthogonalLoop=1;jettySize=auto;html=1;exitX=1;exitY=0.5;exitDx=0;exitDy=0;exitPerimeter=0;entryX=0;entryY=0.5;entryDx=0;entryDy=0;entryPerimeter=0;endArrow=none;endFill=0;strokeWidth=4;fontFamily=Courier New;fontColor=#009900;" edge="1" parent="1" source="gIOAA_0Qwzj5sN9iRquE-31" target="gIOAA_0Qwzj5sN9iRquE-47">
          <mxGeometry relative="1" as="geometry">
            <mxPoint x="388" y="312" as="sourcePoint" />
            <mxPoint x="440" y="385" as="targetPoint" />
          </mxGeometry>
        </mxCell>
        <mxCell id="gIOAA_0Qwzj5sN9iRquE-51" style="edgeStyle=orthogonalEdgeStyle;curved=1;rounded=0;orthogonalLoop=1;jettySize=auto;html=1;exitX=1;exitY=0.5;exitDx=0;exitDy=0;exitPerimeter=0;entryX=0;entryY=0.5;entryDx=0;entryDy=0;entryPerimeter=0;endArrow=none;endFill=0;strokeWidth=4;fontFamily=Courier New;fontColor=#009900;" edge="1" parent="1" source="gIOAA_0Qwzj5sN9iRquE-47" target="gIOAA_0Qwzj5sN9iRquE-34">
          <mxGeometry relative="1" as="geometry">
            <mxPoint x="570" y="312" as="targetPoint" />
            <mxPoint x="520" y="385" as="sourcePoint" />
          </mxGeometry>
        </mxCell>
        <mxCell id="gIOAA_0Qwzj5sN9iRquE-54" value="Hotfix Commit" style="text;html=1;strokeColor=none;fillColor=none;align=center;verticalAlign=middle;whiteSpace=wrap;overflow=hidden;" vertex="1" parent="1">
          <mxGeometry x="389" y="237" width="80" height="30" as="geometry" />
        </mxCell>
      </root>
    </mxGraphModel>
  </diagram>
</mxfile>
